<svg xmlns="http://www.w3.org/2000/svg" xmlns:xlink="http://www.w3.org/1999/xlink" id="svg" width="400" height="400" viewBox="0, 0, 400, 400"><path id="path0" d="M175.000 1.213 C 25.534 22.006,-48.272 193.549,39.865 315.302 L 44.438 321.619 44.680 348.896 L 44.922 376.172 47.374 381.346 C 53.471 394.215,64.059 400.494,78.590 399.859 L 85.925 399.538 104.358 390.377 L 122.792 381.216 129.643 383.925 C 205.907 414.083,296.457 391.308,350.812 328.298 C 452.322 210.624,386.744 28.743,233.246 2.228 C 220.712 0.063,187.434 -0.517,175.000 1.213 M227.344 30.817 C 293.717 42.131,347.613 90.608,364.468 154.155 C 400.422 289.710,266.927 407.436,136.674 355.042 C 121.246 348.836,122.713 348.614,97.806 360.937 C 86.516 366.523,76.779 371.094,76.167 371.094 C 73.708 371.094,73.438 368.034,73.438 340.247 C 73.438 308.427,74.136 311.876,65.317 300.127 C -12.629 196.281,49.820 48.588,179.512 30.053 C 189.538 28.620,217.033 29.059,227.344 30.817 M261.254 161.468 C 246.256 172.072,233.018 181.113,231.836 181.561 C 228.439 182.846,226.836 181.869,203.083 164.030 C 177.047 144.477,173.746 142.955,168.706 148.187 C 167.192 149.757,102.907 241.237,101.599 243.682 C 98.560 249.361,103.157 257.031,109.600 257.031 C 113.677 257.031,112.340 257.931,142.397 234.955 C 165.602 217.217,169.502 214.512,171.875 214.510 C 174.057 214.508,180.840 218.247,205.477 233.035 C 238.365 252.775,239.199 253.149,244.375 250.471 C 247.361 248.926,301.563 155.235,301.563 151.618 C 301.563 145.975,297.776 142.188,292.135 142.188 C 288.674 142.188,287.381 142.995,261.254 161.468 " stroke="none" fill="#000" /></svg>
