
<svg id="svg" version="1.1" xmlns="http://www.w3.org/2000/svg" xmlns:xlink="http://www.w3.org/1999/xlink" width="400" height="403.0534351145038" viewBox="0, 0, 400,403.0534351145038"><g id="svgg"><path id="path0" d="M334.600 179.634 C 333.720 179.822,331.685 180.158,330.078 180.381 C 328.470 180.604,326.765 181.059,326.289 181.393 C 325.812 181.727,325.112 182.000,324.732 182.000 C 322.367 182.000,310.400 190.841,310.400 192.589 C 310.400 192.751,309.947 193.450,309.394 194.142 C 308.841 194.834,308.249 195.580,308.079 195.800 C 307.909 196.020,307.530 196.785,307.237 197.500 C 306.943 198.215,306.545 198.800,306.351 198.800 C 306.158 198.800,306.000 199.122,306.000 199.515 C 306.000 199.909,305.633 200.944,305.185 201.815 C 304.736 202.687,304.271 204.210,304.150 205.200 C 304.029 206.190,303.676 207.679,303.365 208.508 C 302.616 210.508,302.616 217.095,303.366 219.092 C 303.678 219.921,304.020 221.362,304.127 222.293 C 304.309 223.874,304.773 225.077,306.942 229.585 C 307.890 231.556,307.954 231.658,309.394 233.458 C 309.947 234.150,310.400 234.853,310.400 235.021 C 310.400 235.787,317.280 241.840,318.887 242.487 C 319.279 242.645,319.600 242.946,319.600 243.155 C 319.600 243.365,320.128 243.652,320.772 243.794 C 321.417 243.936,322.159 244.310,322.421 244.626 C 322.683 244.942,323.194 245.200,323.555 245.200 C 323.916 245.200,324.884 245.560,325.704 246.000 C 326.525 246.440,327.783 246.808,328.499 246.818 C 329.214 246.827,330.520 247.101,331.400 247.425 C 334.346 248.513,339.021 248.608,342.426 247.651 C 344.090 247.183,345.896 246.800,346.441 246.800 C 346.985 246.800,348.137 246.440,349.000 246.000 C 349.863 245.560,350.869 245.200,351.236 245.200 C 351.602 245.200,352.117 244.942,352.379 244.626 C 352.641 244.310,353.368 243.939,353.994 243.801 C 354.621 243.664,355.233 243.292,355.354 242.976 C 355.476 242.659,355.777 242.400,356.024 242.400 C 356.925 242.400,364.400 235.544,364.400 234.716 C 364.400 234.560,364.745 234.109,365.168 233.716 C 366.244 232.712,366.694 230.800,365.853 230.800 C 365.504 230.800,364.630 230.441,363.910 230.001 C 363.189 229.562,362.254 229.202,361.831 229.201 C 361.409 229.201,360.779 228.956,360.431 228.657 C 359.077 227.493,354.800 227.028,354.800 228.045 C 354.800 228.535,350.968 232.400,350.482 232.400 C 350.264 232.400,349.994 232.625,349.882 232.900 C 349.770 233.175,348.625 233.921,347.339 234.558 C 346.052 235.195,344.460 236.005,343.800 236.358 C 342.026 237.307,331.910 237.252,330.200 236.285 C 329.540 235.911,328.550 235.425,328.000 235.204 C 326.173 234.470,321.410 230.878,320.655 229.664 C 320.465 229.359,319.970 228.770,319.555 228.355 C 319.140 227.940,318.800 227.339,318.800 227.020 C 318.800 226.701,318.559 226.296,318.266 226.120 C 317.549 225.691,315.604 221.485,315.586 220.325 C 315.578 219.816,315.314 218.950,315.000 218.400 C 314.621 217.737,314.428 216.188,314.428 213.800 C 314.428 211.412,314.621 209.863,315.000 209.200 C 315.314 208.650,315.578 207.787,315.586 207.283 C 315.598 206.479,317.105 203.039,318.532 200.558 C 319.319 199.190,323.692 194.800,324.269 194.800 C 324.561 194.800,324.800 194.638,324.800 194.440 C 324.800 193.937,327.139 192.610,330.135 191.411 C 333.495 190.067,340.813 189.951,343.400 191.200 C 344.280 191.625,345.304 191.979,345.676 191.986 C 346.048 191.994,346.466 192.183,346.604 192.406 C 346.742 192.629,347.427 193.052,348.127 193.344 C 348.827 193.637,350.997 195.425,352.950 197.317 C 356.047 200.319,356.574 200.684,357.078 200.179 C 357.397 199.860,358.049 199.599,358.529 199.597 C 359.008 199.596,359.940 199.237,360.600 198.800 C 361.260 198.363,362.124 198.004,362.521 198.003 C 363.491 197.999,366.393 196.313,366.397 195.751 C 366.415 193.083,353.138 182.013,349.901 181.998 C 349.625 181.996,348.872 181.720,348.227 181.383 C 347.582 181.047,345.757 180.591,344.172 180.371 C 342.587 180.150,340.686 179.797,339.948 179.585 C 338.392 179.139,336.850 179.153,334.600 179.634 M171.600 213.571 L 171.600 246.800 187.620 246.800 C 200.987 246.800,203.829 246.702,204.785 246.208 C 205.416 245.882,206.937 245.497,208.166 245.352 C 209.394 245.208,210.400 244.937,210.400 244.751 C 210.400 244.564,211.205 244.209,212.188 243.961 C 213.171 243.714,214.183 243.261,214.437 242.956 C 214.690 242.650,215.118 242.400,215.387 242.400 C 215.656 242.400,216.399 241.950,217.038 241.400 C 217.677 240.851,218.335 240.401,218.500 240.400 C 218.665 240.400,219.128 240.085,219.529 239.700 C 219.930 239.315,220.785 238.510,221.429 237.911 C 223.819 235.688,227.200 230.879,227.200 229.703 C 227.200 229.351,227.468 228.766,227.797 228.404 C 228.125 228.041,228.575 226.785,228.798 225.612 C 229.020 224.439,229.427 223.209,229.701 222.878 C 230.547 221.858,230.359 205.347,229.484 203.800 C 229.110 203.140,228.803 202.150,228.800 201.600 C 228.797 201.050,228.437 200.060,228.000 199.400 C 227.563 198.740,227.204 197.922,227.203 197.581 C 227.201 197.241,226.928 196.611,226.595 196.181 C 226.263 195.752,225.454 194.572,224.798 193.560 C 223.016 190.814,218.356 186.400,217.237 186.400 C 216.997 186.400,216.800 186.211,216.800 185.980 C 216.800 185.748,216.182 185.301,215.427 184.986 C 214.672 184.670,213.942 184.229,213.804 184.006 C 213.666 183.783,213.248 183.594,212.876 183.586 C 212.504 183.579,211.480 183.225,210.600 182.800 C 209.720 182.375,208.460 182.013,207.800 181.996 C 207.140 181.979,205.880 181.673,205.000 181.315 C 203.642 180.764,200.992 180.641,187.500 180.504 L 171.600 180.343 171.600 213.571 M244.687 180.646 C 244.529 180.804,244.400 195.758,244.400 213.878 L 244.400 246.822 250.100 246.711 L 255.800 246.600 255.908 237.232 C 255.977 231.142,256.170 227.678,256.457 227.332 C 256.801 226.917,258.961 226.800,266.275 226.800 C 271.717 226.800,275.964 226.633,276.395 226.403 C 276.803 226.184,278.340 225.835,279.810 225.627 C 281.280 225.419,282.794 224.968,283.173 224.624 C 283.553 224.281,284.226 224.000,284.670 224.000 C 285.113 224.000,285.802 223.640,286.200 223.200 C 286.598 222.760,287.122 222.400,287.365 222.400 C 288.532 222.400,293.607 216.752,294.194 214.800 C 294.359 214.250,294.759 213.498,295.082 213.130 C 295.749 212.370,296.573 207.298,296.567 204.000 C 296.546 193.174,290.475 185.070,279.600 181.352 C 277.315 180.571,245.408 179.926,244.687 180.646 M276.200 191.314 C 276.860 191.689,277.679 191.996,278.019 191.998 C 278.911 192.001,282.882 195.949,283.656 197.600 C 287.036 204.815,283.824 214.490,277.655 215.681 C 276.855 215.835,275.300 216.139,274.200 216.357 C 270.572 217.074,257.586 216.911,256.731 216.138 C 255.630 215.141,255.600 191.483,256.700 190.814 C 257.945 190.056,274.743 190.487,276.200 191.314 M204.440 191.653 C 205.892 191.954,207.332 192.403,207.640 192.651 C 207.948 192.899,208.650 193.237,209.200 193.402 C 210.297 193.730,210.542 193.924,213.243 196.583 C 215.027 198.341,217.200 201.885,217.200 203.038 C 217.200 203.349,217.560 204.275,218.000 205.096 C 218.715 206.430,218.800 207.352,218.800 213.800 C 218.800 220.248,218.715 221.170,218.000 222.504 C 217.560 223.325,217.200 224.281,217.200 224.627 C 217.200 225.223,215.503 228.417,214.611 229.499 C 213.293 231.099,211.941 232.400,211.597 232.400 C 211.378 232.400,211.200 232.589,211.200 232.820 C 211.200 233.052,210.582 233.499,209.827 233.814 C 209.072 234.130,208.348 234.560,208.218 234.771 C 208.088 234.981,207.131 235.277,206.091 235.427 C 205.051 235.578,203.948 235.903,203.639 236.150 C 202.910 236.735,184.458 236.987,183.600 236.423 C 182.724 235.848,182.691 192.495,183.566 191.441 C 184.280 190.581,200.040 190.741,204.440 191.653 " stroke="none" fill="#ffffff" fill-rule="evenodd"></path><path id="path1" d="M139.476 60.900 C 134.814 65.326,126.095 73.538,123.442 76.000 C 122.138 77.210,120.045 79.190,118.789 80.400 C 117.534 81.610,113.757 85.210,110.396 88.400 C 97.423 100.715,94.832 103.252,84.592 113.668 C 78.325 120.042,73.859 124.789,68.900 130.344 C 68.185 131.145,67.600 131.935,67.600 132.100 C 67.600 132.551,70.315 132.461,70.600 132.000 C 70.736 131.780,71.249 131.600,71.739 131.600 C 72.230 131.600,73.316 131.250,74.154 130.823 C 74.992 130.396,76.246 129.923,76.939 129.772 C 77.633 129.621,78.555 129.251,78.989 128.949 C 79.884 128.326,82.235 128.210,82.582 128.771 C 82.708 128.975,82.430 129.263,81.965 129.411 C 81.229 129.645,79.023 130.960,77.800 131.894 C 77.580 132.062,76.403 132.852,75.184 133.648 C 65.609 139.906,65.359 146.793,74.658 148.188 C 75.726 148.348,76.901 148.640,77.270 148.837 C 77.638 149.035,79.326 149.402,81.020 149.654 C 84.306 150.143,84.300 150.531,81.000 150.948 C 71.740 152.119,69.374 157.019,75.469 162.402 C 79.066 165.579,79.827 166.219,80.463 166.600 C 80.829 166.820,81.910 167.549,82.865 168.219 C 83.819 168.889,84.915 169.559,85.300 169.706 C 85.685 169.854,86.000 170.143,86.000 170.348 C 86.000 170.554,86.554 170.915,87.230 171.151 C 87.907 171.386,88.346 171.764,88.206 171.990 C 87.843 172.578,86.178 172.496,85.654 171.865 C 85.409 171.570,84.442 171.102,83.505 170.823 C 82.567 170.545,81.620 170.183,81.400 170.020 C 81.180 169.856,79.380 169.239,77.400 168.648 C 75.420 168.058,72.990 167.309,72.000 166.985 C 66.217 165.092,62.885 168.015,65.045 173.086 C 66.144 175.668,67.374 178.173,67.850 178.800 C 68.698 179.917,68.910 181.200,68.247 181.200 C 67.913 181.200,67.496 180.952,67.320 180.650 C 65.957 178.306,59.726 175.503,58.069 176.488 C 55.417 178.067,55.000 179.979,55.000 190.566 C 55.000 197.617,54.875 200.174,54.523 200.292 C 54.234 200.388,53.945 199.849,53.790 198.926 C 52.942 193.871,48.714 183.615,46.315 180.794 C 43.173 177.101,38.746 179.893,36.381 187.058 C 35.721 189.058,34.800 187.931,34.800 185.124 C 34.800 184.066,34.701 183.200,34.581 183.200 C 34.095 183.200,32.392 185.476,32.037 186.600 C 31.828 187.260,31.182 189.060,30.601 190.600 C 30.020 192.140,29.357 194.210,29.126 195.200 C 28.896 196.190,28.552 197.194,28.362 197.431 C 27.946 197.950,26.735 203.051,25.418 209.830 C 23.652 218.925,23.520 246.561,25.212 252.846 C 25.433 253.666,25.867 255.655,26.176 257.268 C 26.994 261.534,27.963 265.168,28.623 266.444 C 28.940 267.058,29.200 267.930,29.200 268.382 C 29.200 268.833,29.560 269.875,30.000 270.696 C 30.440 271.516,30.800 272.433,30.800 272.732 C 30.800 273.032,31.060 273.754,31.377 274.338 C 31.695 274.922,32.447 276.570,33.048 278.000 C 33.650 279.430,34.380 280.884,34.671 281.231 C 34.962 281.579,35.200 281.990,35.200 282.145 C 35.200 282.664,40.412 291.512,41.010 292.008 C 41.335 292.278,41.600 292.676,41.600 292.894 C 41.600 293.421,47.347 300.735,50.600 304.349 C 51.902 305.795,56.162 309.999,59.569 313.200 C 62.267 315.734,67.704 319.851,72.600 323.066 C 74.140 324.077,75.888 325.241,76.484 325.652 C 77.080 326.064,77.742 326.400,77.955 326.400 C 78.168 326.400,78.590 326.647,78.893 326.950 C 79.195 327.252,80.603 328.073,82.021 328.773 C 83.440 329.473,84.870 330.209,85.200 330.408 C 85.530 330.607,86.880 331.242,88.200 331.820 C 89.520 332.397,91.140 333.117,91.800 333.420 C 94.345 334.587,96.921 335.600,97.351 335.602 C 97.598 335.604,98.328 335.880,98.974 336.217 C 99.619 336.554,100.789 336.992,101.574 337.192 C 102.358 337.391,103.810 337.817,104.800 338.137 C 108.763 339.420,117.676 341.600,118.960 341.600 C 119.500 341.600,121.799 341.979,124.071 342.443 C 130.199 343.694,154.524 343.722,160.600 342.484 C 162.800 342.036,166.040 341.542,167.800 341.386 C 169.560 341.230,171.327 340.931,171.727 340.722 C 172.127 340.514,173.458 340.266,174.684 340.173 C 175.910 340.080,177.165 339.795,177.473 339.540 C 177.780 339.284,178.948 338.931,180.067 338.754 C 181.186 338.577,182.408 338.155,182.782 337.816 C 183.157 337.477,183.989 337.199,184.631 337.197 C 185.274 337.196,186.340 336.837,187.000 336.400 C 187.660 335.963,188.673 335.604,189.251 335.603 C 189.829 335.601,190.517 335.342,190.779 335.026 C 191.041 334.710,191.828 334.330,192.528 334.181 C 193.227 334.033,194.070 333.681,194.400 333.400 C 194.730 333.119,195.573 332.767,196.272 332.619 C 196.972 332.470,197.759 332.090,198.021 331.774 C 198.283 331.458,198.667 331.200,198.874 331.200 C 199.336 331.200,202.836 329.482,205.000 328.194 C 205.880 327.670,207.008 327.055,207.506 326.828 C 208.004 326.601,208.904 326.072,209.506 325.653 C 210.108 325.233,211.680 324.201,213.000 323.359 C 214.320 322.517,215.494 321.697,215.609 321.538 C 215.724 321.378,216.528 320.766,217.396 320.177 C 222.547 316.681,231.398 308.634,235.409 303.800 C 236.504 302.480,237.602 301.220,237.848 301.000 C 239.015 299.958,246.000 290.218,246.000 289.633 C 246.000 289.426,246.246 289.011,246.547 288.710 C 246.849 288.409,247.839 286.783,248.747 285.097 C 251.104 280.728,250.940 279.913,247.927 281.020 C 246.977 281.369,245.660 281.794,245.000 281.964 C 244.340 282.134,243.224 282.572,242.520 282.937 C 241.816 283.301,240.826 283.601,240.320 283.602 C 239.814 283.604,238.897 283.867,238.283 284.188 C 237.669 284.508,236.499 284.882,235.683 285.020 C 234.867 285.157,233.164 285.614,231.898 286.035 C 230.633 286.456,229.170 286.800,228.649 286.800 C 228.127 286.800,227.003 287.045,226.150 287.344 C 225.298 287.643,223.520 288.014,222.200 288.169 C 220.880 288.323,218.810 288.694,217.600 288.994 C 209.471 291.003,185.295 290.988,177.600 288.967 C 176.390 288.650,174.410 288.222,173.200 288.016 C 170.446 287.548,166.575 286.512,165.000 285.821 C 164.340 285.532,163.143 285.179,162.340 285.037 C 161.537 284.895,160.660 284.514,160.391 284.189 C 160.122 283.865,159.555 283.600,159.130 283.600 C 158.706 283.600,157.693 283.252,156.879 282.827 C 156.066 282.402,153.870 281.303,152.000 280.384 C 150.130 279.465,148.330 278.490,148.000 278.217 C 147.670 277.945,147.085 277.610,146.700 277.473 C 144.812 276.804,133.400 267.729,130.000 264.194 C 125.135 259.135,120.386 253.324,119.136 250.900 C 118.880 250.405,118.520 250.000,118.336 250.000 C 118.151 250.000,118.000 249.828,118.000 249.618 C 118.000 249.408,117.559 248.586,117.021 247.792 C 115.078 244.929,114.933 224.187,116.807 217.182 C 117.016 216.402,117.448 214.512,117.767 212.982 C 118.569 209.131,119.183 206.917,120.054 204.726 C 120.465 203.695,120.800 202.569,120.800 202.224 C 120.800 201.879,121.160 200.925,121.600 200.104 C 122.040 199.284,122.400 198.367,122.400 198.068 C 122.400 197.768,122.662 197.046,122.982 196.462 C 123.302 195.878,124.033 194.320,124.606 193.000 C 125.180 191.680,125.804 190.330,125.993 190.000 C 126.183 189.670,127.274 187.600,128.417 185.400 C 129.561 183.200,132.050 179.060,133.947 176.200 C 135.844 173.340,137.487 170.820,137.598 170.600 C 137.886 170.030,143.351 162.714,144.032 161.987 C 144.344 161.653,145.225 160.575,145.989 159.590 C 148.049 156.935,148.130 156.837,149.029 155.881 C 149.486 155.397,151.016 153.666,152.429 152.035 C 153.843 150.403,155.360 148.683,155.800 148.211 C 156.240 147.739,158.486 145.320,160.791 142.834 C 166.677 136.489,178.709 124.589,189.920 114.025 C 195.856 108.432,195.949 108.220,193.500 105.888 C 192.565 104.998,189.087 101.644,185.770 98.435 C 180.731 93.558,173.009 86.192,166.024 79.600 C 163.272 77.003,159.423 73.416,155.075 69.397 C 152.696 67.199,149.015 63.735,146.894 61.700 C 142.295 57.286,143.181 57.382,139.476 60.900 M147.927 63.919 C 151.888 67.783,158.496 74.012,163.770 78.856 C 165.294 80.255,167.214 82.075,168.039 82.900 C 168.863 83.725,169.616 84.400,169.712 84.400 C 169.808 84.400,171.698 86.155,173.912 88.300 C 196.891 110.565,194.965 107.918,190.940 111.700 C 189.478 113.075,186.603 115.844,184.552 117.853 C 182.501 119.862,180.548 121.611,180.212 121.740 C 179.875 121.869,179.600 122.251,179.600 122.587 C 179.600 122.924,179.401 123.200,179.158 123.200 C 178.598 123.200,158.400 143.422,158.400 143.983 C 158.400 144.213,158.124 144.400,157.787 144.400 C 157.451 144.400,157.072 144.668,156.946 144.996 C 156.820 145.324,155.569 146.775,154.165 148.221 C 152.761 149.667,150.935 151.693,150.106 152.725 C 149.278 153.756,148.375 154.744,148.100 154.920 C 147.825 155.096,147.600 155.458,147.600 155.724 C 147.600 155.990,147.240 156.432,146.800 156.707 C 146.360 156.982,146.000 157.475,146.000 157.803 C 146.000 158.132,145.730 158.400,145.400 158.400 C 145.070 158.400,144.800 158.554,144.800 158.742 C 144.800 159.043,144.049 159.999,142.243 162.000 C 141.945 162.330,141.576 163.005,141.424 163.500 C 141.271 163.995,140.888 164.400,140.573 164.400 C 140.258 164.400,140.000 164.585,140.000 164.812 C 140.000 165.038,139.280 166.134,138.400 167.248 C 137.520 168.361,136.800 169.526,136.800 169.836 C 136.800 170.146,136.530 170.400,136.200 170.400 C 135.870 170.400,135.600 170.599,135.600 170.842 C 135.600 171.085,135.150 171.819,134.600 172.473 C 134.050 173.127,133.600 173.918,133.600 174.231 C 133.600 174.544,133.416 174.800,133.190 174.800 C 132.965 174.800,132.609 175.250,132.400 175.800 C 132.191 176.350,131.844 176.800,131.628 176.800 C 131.413 176.800,131.121 177.413,130.981 178.163 C 130.818 179.032,130.448 179.599,129.962 179.726 C 129.463 179.856,129.200 180.278,129.200 180.948 C 129.200 181.562,128.880 182.143,128.400 182.400 C 127.960 182.635,127.600 183.187,127.600 183.627 C 127.600 184.066,127.341 184.524,127.024 184.646 C 126.708 184.767,126.337 185.377,126.200 186.000 C 126.063 186.623,125.715 187.224,125.426 187.335 C 125.137 187.445,124.783 188.163,124.640 188.929 C 124.496 189.696,124.130 190.418,123.827 190.534 C 123.524 190.651,123.157 191.286,123.012 191.945 C 122.867 192.605,122.490 193.359,122.174 193.621 C 121.835 193.903,121.600 194.815,121.600 195.849 L 121.600 197.600 119.862 197.600 C 118.632 197.600,117.912 197.366,117.400 196.800 C 117.002 196.360,116.276 196.000,115.787 196.000 C 115.298 196.000,114.674 195.730,114.400 195.400 C 114.126 195.070,113.564 194.800,113.151 194.800 C 112.667 194.800,112.400 194.516,112.400 194.000 C 112.400 193.436,112.133 193.200,111.496 193.200 C 110.999 193.200,110.368 192.840,110.093 192.400 C 109.818 191.960,109.173 191.600,108.659 191.600 C 108.145 191.600,107.398 191.240,107.000 190.800 C 106.602 190.360,105.854 190.000,105.338 190.000 C 104.667 190.000,104.400 189.773,104.400 189.200 C 104.400 188.696,104.133 188.400,103.678 188.400 C 103.282 188.400,102.346 187.770,101.600 187.000 C 100.822 186.198,99.850 185.600,99.322 185.600 C 98.667 185.600,98.400 185.369,98.400 184.800 C 98.400 184.299,98.133 184.000,97.687 184.000 C 97.296 184.000,95.906 182.920,94.600 181.600 C 93.294 180.280,91.904 179.200,91.513 179.200 C 91.121 179.200,90.800 178.930,90.800 178.600 C 90.800 178.267,90.444 178.000,90.000 178.000 C 89.467 178.000,89.200 177.733,89.200 177.200 C 89.200 176.667,88.933 176.400,88.400 176.400 C 87.867 176.400,87.600 176.133,87.600 175.600 C 87.600 175.013,87.867 174.800,88.600 174.800 C 89.333 174.800,89.600 175.013,89.600 175.600 C 89.600 176.243,89.867 176.400,90.957 176.400 C 91.795 176.400,92.403 176.630,92.545 177.000 C 92.685 177.365,93.290 177.600,94.091 177.600 C 94.974 177.600,95.572 177.863,95.907 178.400 C 96.247 178.944,96.840 179.200,97.761 179.200 C 98.537 179.200,99.204 179.433,99.324 179.747 C 99.554 180.346,101.438 180.837,102.275 180.516 C 103.070 180.211,102.904 178.871,102.000 178.307 C 101.560 178.032,101.200 177.600,101.200 177.347 C 101.200 176.829,100.299 176.400,99.214 176.400 C 98.818 176.400,98.399 176.040,98.284 175.600 C 98.133 175.022,97.738 174.800,96.864 174.800 C 96.005 174.800,95.580 174.568,95.400 174.000 C 95.260 173.560,94.798 173.200,94.373 173.200 C 93.948 173.200,93.600 173.042,93.600 172.849 C 93.600 172.655,93.015 172.261,92.300 171.972 C 91.585 171.683,90.856 171.211,90.680 170.923 C 90.504 170.636,89.739 170.400,88.980 170.400 C 87.867 170.400,87.600 170.245,87.600 169.600 C 87.600 169.083,87.333 168.800,86.847 168.800 C 86.430 168.800,86.000 168.443,85.884 168.000 C 85.734 167.426,85.338 167.200,84.484 167.200 C 83.630 167.200,83.234 166.974,83.084 166.400 C 82.969 165.960,82.588 165.600,82.237 165.600 C 81.887 165.600,81.600 165.330,81.600 165.000 C 81.600 164.670,81.401 164.400,81.158 164.400 C 80.915 164.400,80.181 163.950,79.527 163.400 C 78.873 162.850,78.082 162.400,77.769 162.400 C 77.456 162.400,77.200 162.130,77.200 161.800 C 77.200 161.467,76.844 161.200,76.400 161.200 C 75.903 161.200,75.600 160.933,75.600 160.496 C 75.600 160.109,75.240 159.568,74.800 159.293 C 74.174 158.902,74.000 158.360,74.000 156.797 C 74.000 155.067,74.107 154.800,74.800 154.800 C 75.240 154.800,75.960 154.440,76.400 154.000 C 76.928 153.472,77.733 153.200,78.771 153.200 C 79.636 153.200,80.591 152.952,80.894 152.648 C 81.211 152.332,82.815 151.976,84.657 151.813 C 89.771 151.360,90.705 149.694,86.197 149.066 C 84.879 148.883,83.350 148.498,82.800 148.211 C 82.250 147.924,80.322 147.561,78.516 147.404 C 76.494 147.229,75.052 146.904,74.767 146.560 C 74.498 146.236,73.564 146.000,72.551 146.000 C 71.067 146.000,70.800 145.878,70.800 145.200 C 70.800 144.756,70.533 144.400,70.200 144.400 C 69.758 144.400,69.600 143.938,69.600 142.643 C 69.600 141.450,69.793 140.812,70.200 140.655 C 70.530 140.529,70.800 140.187,70.800 139.895 C 70.800 139.280,73.725 136.400,74.350 136.400 C 74.582 136.400,74.965 136.040,75.200 135.600 C 75.435 135.160,75.897 134.800,76.227 134.800 C 76.556 134.800,76.929 134.530,77.055 134.200 C 77.182 133.870,77.536 133.600,77.843 133.600 C 78.149 133.600,78.742 133.258,79.161 132.839 C 79.579 132.421,80.299 131.959,80.761 131.813 C 81.222 131.666,81.600 131.288,81.600 130.973 C 81.600 130.658,81.945 130.400,82.367 130.400 C 83.559 130.400,84.400 129.969,84.400 129.357 C 84.400 129.030,84.812 128.800,85.400 128.800 C 85.950 128.800,86.760 128.440,87.200 128.000 C 87.640 127.560,88.270 127.200,88.600 127.200 C 88.930 127.200,89.555 126.845,89.990 126.410 C 90.424 125.976,91.249 125.503,91.822 125.359 C 92.395 125.215,92.966 124.832,93.091 124.508 C 93.630 123.101,90.319 122.719,88.691 124.000 C 88.131 124.440,87.126 124.800,86.457 124.800 C 85.787 124.800,85.096 125.044,84.920 125.341 C 84.744 125.639,83.804 125.986,82.832 126.112 C 81.837 126.242,80.910 126.617,80.712 126.971 C 80.485 127.377,79.801 127.600,78.780 127.600 C 77.756 127.600,76.930 127.870,76.433 128.367 C 75.721 129.079,72.555 129.674,72.306 129.142 C 72.182 128.877,74.750 125.798,76.900 123.634 C 77.725 122.804,78.400 121.917,78.400 121.662 C 78.400 121.408,78.687 121.200,79.037 121.200 C 79.388 121.200,79.769 120.840,79.884 120.400 C 79.999 119.960,80.330 119.600,80.620 119.600 C 80.909 119.600,81.260 119.240,81.400 118.800 C 81.540 118.360,81.912 118.000,82.227 118.000 C 82.542 118.000,82.800 117.830,82.800 117.622 C 82.800 117.263,107.839 92.000,108.195 92.000 C 108.533 92.000,110.400 89.953,110.400 89.582 C 110.400 89.372,110.563 89.200,110.762 89.200 C 110.961 89.200,112.196 88.165,113.505 86.900 C 114.815 85.635,117.127 83.453,118.643 82.051 C 122.664 78.332,131.757 69.674,137.048 64.525 C 143.254 58.487,142.407 58.534,147.927 63.919 M331.600 178.816 C 327.756 179.705,326.438 180.087,324.600 180.844 C 321.141 182.269,319.281 183.220,318.783 183.820 C 318.519 184.139,318.124 184.400,317.907 184.400 C 316.590 184.400,308.005 192.963,308.001 194.280 C 308.001 194.544,307.774 194.904,307.498 195.080 C 307.222 195.256,306.322 196.750,305.498 198.400 C 304.150 201.099,303.627 202.582,302.393 207.200 C 301.908 209.015,301.908 218.585,302.393 220.400 C 303.627 225.019,304.150 226.501,305.498 229.200 C 306.322 230.850,307.088 232.290,307.200 232.400 C 307.313 232.510,308.207 233.680,309.187 235.000 C 312.387 239.307,317.582 243.615,322.000 245.623 C 322.550 245.873,323.540 246.329,324.200 246.637 C 324.860 246.945,326.030 247.313,326.800 247.456 C 327.570 247.598,328.707 247.969,329.327 248.281 C 330.944 249.095,343.850 249.098,345.465 248.286 C 346.089 247.971,347.188 247.602,347.907 247.466 C 351.487 246.785,358.805 242.352,362.579 238.579 C 364.665 236.493,368.000 231.875,368.000 231.072 C 368.000 230.777,364.384 228.800,363.844 228.800 C 363.593 228.800,362.761 228.464,361.994 228.053 C 361.227 227.643,360.017 227.179,359.305 227.023 C 358.592 226.866,357.906 226.572,357.781 226.369 C 357.125 225.308,355.231 226.034,353.746 227.917 C 348.436 234.648,336.961 238.524,331.400 235.465 C 330.740 235.102,329.909 234.804,329.554 234.802 C 329.199 234.801,328.450 234.440,327.891 234.000 C 327.331 233.560,326.675 233.200,326.433 233.200 C 325.483 233.200,319.674 226.958,318.614 224.800 C 318.020 223.590,317.329 222.240,317.079 221.800 C 315.744 219.452,315.657 208.951,316.950 206.200 C 318.555 202.786,319.755 200.538,320.259 200.000 C 320.569 199.670,321.222 198.950,321.711 198.399 C 326.855 192.609,336.234 189.696,342.400 191.972 C 347.569 193.881,351.221 196.367,353.759 199.705 C 355.221 201.628,356.249 201.871,358.531 200.832 C 359.535 200.374,360.531 200.000,360.746 200.000 C 360.960 200.000,361.645 199.741,362.268 199.424 C 362.890 199.108,363.942 198.654,364.605 198.415 C 367.043 197.538,368.297 196.191,367.498 195.308 C 367.114 194.884,366.800 194.396,366.800 194.224 C 366.800 192.502,356.031 182.800,354.120 182.800 C 353.888 182.800,353.483 182.542,353.221 182.226 C 352.959 181.910,352.172 181.529,351.472 181.380 C 350.773 181.230,349.975 180.926,349.699 180.704 C 349.423 180.482,348.163 180.064,346.899 179.776 C 345.635 179.487,343.880 179.064,343.000 178.835 C 341.147 178.353,333.655 178.341,331.600 178.816 M344.200 180.136 C 347.279 180.774,350.882 181.892,351.876 182.518 C 352.137 182.682,353.359 183.347,354.591 183.995 C 355.823 184.643,357.087 185.404,357.401 185.687 C 357.715 185.969,359.023 187.100,360.308 188.200 C 363.275 190.740,367.317 195.751,366.731 196.163 C 365.859 196.777,363.455 198.000,363.121 198.000 C 362.883 198.000,361.948 198.337,361.044 198.749 C 355.820 201.129,355.989 201.136,353.826 198.455 C 352.400 196.688,348.807 193.735,347.460 193.223 C 346.920 193.017,346.360 192.658,346.215 192.425 C 346.071 192.191,345.553 192.000,345.065 192.000 C 344.577 192.000,343.752 191.701,343.230 191.336 C 337.774 187.514,322.749 193.289,318.610 200.800 C 316.976 203.764,315.981 206.009,315.759 207.230 C 315.622 207.984,315.260 209.371,314.955 210.314 C 314.650 211.257,314.400 212.825,314.400 213.800 C 314.400 214.775,314.650 216.343,314.955 217.286 C 315.260 218.229,315.622 219.616,315.759 220.370 C 316.093 222.207,318.386 226.813,319.603 228.089 C 319.931 228.434,320.907 229.545,321.772 230.558 C 322.636 231.571,323.553 232.400,323.810 232.400 C 324.066 232.400,324.563 232.715,324.913 233.100 C 325.536 233.785,326.224 234.166,330.111 235.976 C 332.682 237.175,340.938 237.315,343.430 236.203 C 348.284 234.038,349.612 233.187,352.383 230.472 C 356.448 226.489,356.434 226.492,361.000 228.573 C 367.695 231.625,367.364 231.097,364.779 234.600 C 362.028 238.327,355.359 244.000,353.727 244.000 C 353.491 244.000,353.074 244.270,352.800 244.600 C 352.526 244.930,352.006 245.200,351.645 245.200 C 351.284 245.200,350.361 245.534,349.594 245.943 C 348.827 246.352,347.390 246.807,346.400 246.954 C 345.410 247.101,343.880 247.479,343.000 247.794 C 340.557 248.666,334.378 248.566,331.000 247.600 C 329.461 247.160,327.729 246.800,327.150 246.800 C 326.571 246.800,325.892 246.552,325.640 246.248 C 325.388 245.945,324.691 245.598,324.091 245.477 C 323.140 245.286,321.611 244.508,318.602 242.684 C 316.240 241.252,311.384 236.859,310.200 235.082 C 309.980 234.752,309.260 233.690,308.600 232.721 C 306.602 229.790,304.000 224.125,304.000 222.706 C 304.000 222.153,303.730 220.935,303.400 220.000 C 303.003 218.875,302.800 216.777,302.800 213.800 C 302.800 210.823,303.003 208.725,303.400 207.600 C 303.730 206.665,304.000 205.447,304.000 204.894 C 304.000 203.472,306.607 197.798,308.600 194.884 C 309.260 193.919,309.980 192.827,310.200 192.457 C 311.086 190.969,316.293 186.321,319.000 184.602 C 320.679 183.536,323.721 182.006,324.200 181.988 C 324.420 181.980,325.320 181.625,326.200 181.200 C 327.080 180.775,328.340 180.407,329.000 180.381 C 329.660 180.356,331.010 180.098,332.000 179.807 C 334.326 179.124,340.069 179.279,344.200 180.136 M171.068 180.190 C 170.263 180.994,170.019 245.340,170.814 246.826 C 171.270 247.678,201.116 248.001,205.200 247.199 C 208.470 246.556,211.790 245.528,212.431 244.960 C 212.779 244.652,213.371 244.400,213.748 244.400 C 214.124 244.400,214.920 244.068,215.516 243.663 C 216.112 243.257,217.346 242.436,218.258 241.837 C 220.878 240.118,225.655 235.238,226.409 233.511 C 226.628 233.010,227.333 231.700,227.977 230.600 C 228.620 229.500,229.159 228.276,229.173 227.880 C 229.188 227.484,229.492 226.596,229.848 225.907 C 231.974 221.797,231.936 204.528,229.795 201.472 C 229.468 201.004,229.200 200.133,229.200 199.535 C 229.200 198.937,229.017 198.334,228.794 198.196 C 228.571 198.058,228.114 197.373,227.778 196.673 C 226.081 193.130,225.276 192.005,222.396 189.148 C 220.676 187.442,218.263 185.478,217.034 184.785 C 215.806 184.091,214.699 183.361,214.576 183.162 C 214.453 182.963,213.935 182.800,213.425 182.800 C 212.915 182.800,212.286 182.544,212.026 182.231 C 211.766 181.918,210.818 181.538,209.918 181.386 C 209.018 181.234,207.633 180.823,206.841 180.473 C 204.578 179.473,172.042 179.215,171.068 180.190 M243.700 179.997 L 242.800 180.374 242.800 213.507 C 242.800 238.744,242.914 246.754,243.280 247.120 C 243.995 247.835,255.746 247.788,256.343 247.068 C 256.630 246.722,256.823 243.258,256.892 237.168 L 257.000 227.800 267.800 227.576 C 276.540 227.396,278.905 227.227,280.200 226.694 C 281.080 226.332,282.160 226.015,282.600 225.991 C 283.040 225.967,284.300 225.420,285.400 224.777 C 286.500 224.133,287.786 223.437,288.258 223.229 C 289.398 222.728,293.600 218.402,293.600 217.729 C 293.600 217.438,293.759 217.200,293.952 217.200 C 294.439 217.200,296.296 213.307,296.624 211.600 C 296.771 210.830,297.097 209.947,297.346 209.638 C 297.631 209.285,297.800 207.188,297.800 203.999 C 297.800 200.810,297.631 198.714,297.346 198.361 C 297.097 198.053,296.762 197.191,296.603 196.446 C 296.352 195.274,295.319 193.060,293.765 190.363 C 292.570 188.289,286.568 182.800,285.496 182.800 C 285.258 182.800,284.779 182.546,284.431 182.235 C 282.006 180.064,280.155 179.860,261.800 179.736 C 251.636 179.667,244.232 179.774,243.700 179.997 M206.600 181.360 C 208.140 181.765,209.940 182.339,210.600 182.635 C 211.260 182.930,212.288 183.286,212.884 183.425 C 213.480 183.565,214.177 183.931,214.433 184.239 C 214.689 184.548,215.133 184.800,215.420 184.800 C 215.708 184.800,216.184 185.025,216.478 185.300 C 216.773 185.575,218.181 186.685,219.607 187.767 C 221.033 188.848,222.261 189.886,222.336 190.074 C 222.410 190.261,222.748 190.691,223.085 191.028 C 224.011 191.954,227.200 196.802,227.200 197.284 C 227.200 197.516,227.538 198.267,227.951 198.953 C 228.365 199.639,228.831 200.920,228.987 201.800 C 229.144 202.680,229.480 203.653,229.736 203.961 C 230.059 204.352,230.200 207.349,230.200 213.800 C 230.200 220.251,230.059 223.248,229.736 223.639 C 229.480 223.947,229.144 224.920,228.987 225.800 C 228.831 226.680,228.365 227.961,227.951 228.647 C 227.538 229.333,227.200 230.093,227.200 230.335 C 227.200 232.696,218.578 241.528,215.238 242.588 C 214.777 242.734,214.400 242.998,214.400 243.175 C 214.400 243.352,213.585 243.724,212.590 244.003 C 211.594 244.282,210.690 244.655,210.580 244.832 C 210.471 245.009,209.534 245.281,208.497 245.436 C 207.461 245.592,206.031 245.962,205.319 246.259 C 204.304 246.684,200.495 246.800,187.613 246.800 L 171.200 246.800 171.200 213.867 C 171.200 195.753,171.329 180.804,171.487 180.646 C 172.181 179.952,203.681 180.593,206.600 181.360 M279.433 181.233 C 285.304 183.000,290.780 186.896,293.038 190.913 C 296.585 197.225,297.902 203.340,296.634 207.612 C 296.285 208.785,295.994 210.208,295.987 210.773 C 295.921 216.215,286.649 224.843,279.848 225.792 C 278.774 225.942,277.514 226.235,277.048 226.444 C 276.582 226.652,271.700 226.952,266.200 227.111 L 256.200 227.400 256.093 237.100 L 255.986 246.800 249.993 246.800 L 244.000 246.800 244.000 213.867 C 244.000 195.753,244.120 180.813,244.267 180.667 C 245.047 179.886,276.648 180.395,279.433 181.233 M184.600 191.093 C 184.160 191.203,183.668 191.497,183.506 191.746 C 182.952 192.601,183.141 235.915,183.700 236.276 C 185.305 237.315,200.456 236.745,205.200 235.468 C 212.172 233.590,216.808 228.121,218.482 219.800 C 219.078 216.836,218.693 206.892,217.925 205.400 C 217.585 204.740,217.185 203.525,217.035 202.700 C 216.886 201.875,216.610 201.200,216.421 201.200 C 216.232 201.200,215.896 200.676,215.672 200.036 C 215.240 198.795,210.227 193.602,209.458 193.598 C 209.206 193.596,208.460 193.305,207.800 192.951 C 204.799 191.340,188.755 190.055,184.600 191.093 M256.414 191.574 C 255.565 193.160,255.879 214.967,256.763 215.766 C 257.614 216.537,273.003 216.499,276.853 215.717 C 287.720 213.510,287.415 195.648,276.443 191.648 C 273.031 190.404,257.072 190.345,256.414 191.574 M201.237 192.372 C 208.968 193.063,216.774 199.399,216.804 205.007 C 216.807 205.443,217.077 206.684,217.404 207.764 C 218.098 210.051,218.209 217.101,217.585 219.203 C 217.356 219.971,217.006 221.429,216.806 222.442 C 214.969 231.758,207.809 235.557,192.031 235.587 C 182.961 235.605,184.000 238.450,184.000 213.599 L 184.000 192.922 184.900 192.488 C 185.991 191.962,195.870 191.892,201.237 192.372 M278.233 193.492 C 285.664 198.263,286.090 209.639,279.000 214.013 C 277.409 214.995,277.345 215.000,267.200 215.000 L 257.000 215.000 256.893 204.006 C 256.835 197.959,256.880 192.767,256.995 192.469 C 257.164 192.028,258.982 191.952,266.712 192.063 L 276.220 192.200 278.233 193.492 M55.889 204.900 C 55.801 205.615,55.728 205.030,55.728 203.600 C 55.728 202.170,55.801 201.585,55.889 202.300 C 55.978 203.015,55.978 204.185,55.889 204.900 M117.200 249.762 C 117.200 250.045,117.560 250.602,118.000 251.000 C 118.440 251.398,118.801 251.921,118.802 252.162 C 118.803 252.403,119.433 253.285,120.202 254.122 C 120.971 254.960,121.600 255.750,121.600 255.879 C 121.600 256.363,126.858 262.326,130.650 266.142 C 132.822 268.328,135.937 271.003,138.170 272.600 C 138.785 273.040,139.548 273.647,139.865 273.950 C 140.484 274.540,145.071 277.666,146.024 278.147 C 146.341 278.307,147.320 278.867,148.200 279.392 C 150.879 280.990,154.499 282.800,155.015 282.800 C 155.283 282.800,155.726 283.070,156.000 283.400 C 156.274 283.730,156.881 284.001,157.349 284.003 C 157.817 284.004,158.740 284.363,159.400 284.800 C 160.060 285.237,161.014 285.596,161.521 285.597 C 162.027 285.599,163.107 285.943,163.921 286.362 C 165.355 287.101,167.056 287.618,170.800 288.451 C 171.790 288.671,173.500 289.100,174.600 289.403 C 175.700 289.706,177.950 290.075,179.600 290.222 C 181.250 290.370,183.680 290.737,185.000 291.039 C 188.393 291.815,205.773 291.809,209.717 291.031 C 211.303 290.718,214.040 290.345,215.800 290.203 C 217.560 290.061,219.900 289.699,221.000 289.400 C 222.100 289.101,224.080 288.679,225.400 288.463 C 228.238 287.998,230.524 287.429,233.800 286.373 C 235.120 285.948,236.655 285.600,237.211 285.600 C 237.767 285.600,238.586 285.345,239.031 285.033 C 239.477 284.721,240.552 284.338,241.420 284.180 C 242.289 284.023,243.360 283.698,243.800 283.458 C 245.174 282.709,248.181 282.043,248.555 282.406 C 248.911 282.751,247.231 286.408,246.155 287.631 C 245.850 287.979,245.600 288.376,245.600 288.514 C 245.600 288.652,245.147 289.447,244.593 290.282 C 244.039 291.117,243.364 292.137,243.093 292.550 C 242.549 293.378,239.649 297.283,238.520 298.709 C 233.955 304.470,225.224 313.130,220.009 317.068 C 218.794 317.986,217.527 318.976,217.194 319.268 C 216.860 319.561,215.243 320.700,213.599 321.800 C 211.955 322.900,210.369 324.025,210.076 324.300 C 209.783 324.575,209.308 324.800,209.020 324.800 C 208.733 324.800,208.311 325.026,208.082 325.301 C 207.853 325.577,206.476 326.432,205.022 327.201 C 203.568 327.971,201.978 328.822,201.489 329.094 C 200.234 329.791,190.071 328.433,188.285 327.329 C 188.091 327.209,186.912 326.882,185.666 326.603 C 184.420 326.324,182.770 325.872,182.000 325.600 C 175.686 323.366,171.756 321.846,169.934 320.933 C 168.145 320.037,167.907 319.917,164.101 317.997 C 161.030 316.447,156.755 313.724,151.010 309.658 C 148.827 308.114,143.832 303.757,141.246 301.142 C 136.936 296.785,134.387 293.814,130.486 288.600 C 127.317 284.365,120.400 271.361,120.400 269.638 C 120.400 269.396,120.040 268.525,119.600 267.704 C 119.160 266.884,118.800 265.754,118.800 265.195 C 118.800 264.636,118.547 263.817,118.237 263.375 C 117.928 262.933,117.542 261.678,117.380 260.586 C 117.219 259.494,116.849 257.923,116.559 257.096 C 115.717 254.691,115.370 249.589,116.022 249.186 C 116.666 248.788,117.200 249.049,117.200 249.762 " stroke="none" fill="#0463ae" fill-rule="evenodd"></path><path id="path2" d="M0.000 201.400 L 0.000 402.800 200.000 402.800 L 400.000 402.800 400.000 201.400 L 400.000 0.000 200.000 0.000 L 0.000 0.000 0.000 201.400 M146.894 61.700 C 149.015 63.735,152.696 67.199,155.075 69.397 C 159.423 73.416,163.272 77.003,166.024 79.600 C 173.009 86.192,180.731 93.558,185.770 98.435 C 189.087 101.644,192.565 104.998,193.500 105.888 C 195.949 108.220,195.856 108.432,189.920 114.025 C 178.709 124.589,166.677 136.489,160.791 142.834 C 158.486 145.320,156.240 147.739,155.800 148.211 C 155.360 148.683,153.843 150.403,152.429 152.035 C 151.016 153.666,149.486 155.397,149.029 155.881 C 148.130 156.837,148.049 156.935,145.989 159.590 C 145.225 160.575,144.344 161.653,144.032 161.987 C 143.351 162.714,137.886 170.030,137.598 170.600 C 137.487 170.820,135.844 173.340,133.947 176.200 C 132.050 179.060,129.561 183.200,128.417 185.400 C 127.274 187.600,126.183 189.670,125.993 190.000 C 125.804 190.330,125.180 191.680,124.606 193.000 C 124.033 194.320,123.302 195.878,122.982 196.462 C 122.662 197.046,122.400 197.768,122.400 198.068 C 122.400 198.367,122.040 199.284,121.600 200.104 C 121.160 200.925,120.800 201.879,120.800 202.224 C 120.800 202.569,120.465 203.695,120.054 204.726 C 119.183 206.917,118.569 209.131,117.767 212.982 C 117.448 214.512,117.016 216.402,116.807 217.182 C 114.933 224.187,115.078 244.929,117.021 247.792 C 117.559 248.586,118.000 249.408,118.000 249.618 C 118.000 249.828,118.151 250.000,118.336 250.000 C 118.520 250.000,118.880 250.405,119.136 250.900 C 120.386 253.324,125.135 259.135,130.000 264.194 C 133.400 267.729,144.812 276.804,146.700 277.473 C 147.085 277.610,147.670 277.945,148.000 278.217 C 148.330 278.490,150.130 279.465,152.000 280.384 C 153.870 281.303,156.066 282.402,156.879 282.827 C 157.693 283.252,158.706 283.600,159.130 283.600 C 159.555 283.600,160.122 283.865,160.391 284.189 C 160.660 284.514,161.537 284.895,162.340 285.037 C 163.143 285.179,164.340 285.532,165.000 285.821 C 166.575 286.512,170.446 287.548,173.200 288.016 C 174.410 288.222,176.390 288.650,177.600 288.967 C 185.295 290.988,209.471 291.003,217.600 288.994 C 218.810 288.694,220.880 288.323,222.200 288.169 C 223.520 288.014,225.298 287.643,226.150 287.344 C 227.003 287.045,228.127 286.800,228.649 286.800 C 229.170 286.800,230.633 286.456,231.898 286.035 C 233.164 285.614,234.867 285.157,235.683 285.020 C 236.499 284.882,237.669 284.508,238.283 284.188 C 238.897 283.867,239.814 283.604,240.320 283.602 C 240.826 283.601,241.816 283.301,242.520 282.937 C 243.224 282.572,244.340 282.134,245.000 281.964 C 245.660 281.794,246.977 281.369,247.927 281.020 C 250.940 279.913,251.104 280.728,248.747 285.097 C 247.839 286.783,246.849 288.409,246.547 288.710 C 246.246 289.011,246.000 289.426,246.000 289.633 C 246.000 290.218,239.015 299.958,237.848 301.000 C 237.602 301.220,236.504 302.480,235.409 303.800 C 231.398 308.634,222.547 316.681,217.396 320.177 C 216.528 320.766,215.724 321.378,215.609 321.538 C 215.494 321.697,214.320 322.517,213.000 323.359 C 211.680 324.201,210.108 325.233,209.506 325.653 C 208.904 326.072,208.004 326.601,207.506 326.828 C 207.008 327.055,205.880 327.670,205.000 328.194 C 202.836 329.482,199.336 331.200,198.874 331.200 C 198.667 331.200,198.283 331.458,198.021 331.774 C 197.759 332.090,196.972 332.470,196.272 332.619 C 195.573 332.767,194.730 333.119,194.400 333.400 C 194.070 333.681,193.227 334.033,192.528 334.181 C 191.828 334.330,191.041 334.710,190.779 335.026 C 190.517 335.342,189.829 335.601,189.251 335.603 C 188.673 335.604,187.660 335.963,187.000 336.400 C 186.340 336.837,185.274 337.196,184.631 337.197 C 183.989 337.199,183.157 337.477,182.782 337.816 C 182.408 338.155,181.186 338.577,180.067 338.754 C 178.948 338.931,177.780 339.284,177.473 339.540 C 177.165 339.795,175.910 340.080,174.684 340.173 C 173.458 340.266,172.127 340.514,171.727 340.722 C 171.327 340.931,169.560 341.230,167.800 341.386 C 166.040 341.542,162.800 342.036,160.600 342.484 C 154.524 343.722,130.199 343.694,124.071 342.443 C 121.799 341.979,119.500 341.600,118.960 341.600 C 117.676 341.600,108.763 339.420,104.800 338.137 C 103.810 337.817,102.358 337.391,101.574 337.192 C 100.789 336.992,99.619 336.554,98.974 336.217 C 98.328 335.880,97.598 335.604,97.351 335.602 C 96.921 335.600,94.345 334.587,91.800 333.420 C 91.140 333.117,89.520 332.397,88.200 331.820 C 86.880 331.242,85.530 330.607,85.200 330.408 C 84.870 330.209,83.440 329.473,82.021 328.773 C 80.603 328.073,79.195 327.252,78.893 326.950 C 78.590 326.647,78.168 326.400,77.955 326.400 C 77.742 326.400,77.080 326.064,76.484 325.652 C 75.888 325.241,74.140 324.077,72.600 323.066 C 67.704 319.851,62.267 315.734,59.569 313.200 C 56.162 309.999,51.902 305.795,50.600 304.349 C 47.347 300.735,41.600 293.421,41.600 292.894 C 41.600 292.676,41.335 292.278,41.010 292.008 C 40.412 291.512,35.200 282.664,35.200 282.145 C 35.200 281.990,34.962 281.579,34.671 281.231 C 34.380 280.884,33.650 279.430,33.048 278.000 C 32.447 276.570,31.695 274.922,31.377 274.338 C 31.060 273.754,30.800 273.032,30.800 272.732 C 30.800 272.433,30.440 271.516,30.000 270.696 C 29.560 269.875,29.200 268.833,29.200 268.382 C 29.200 267.930,28.940 267.058,28.623 266.444 C 27.963 265.168,26.994 261.534,26.176 257.268 C 25.867 255.655,25.433 253.666,25.212 252.846 C 23.520 246.561,23.652 218.925,25.418 209.830 C 26.735 203.051,27.946 197.950,28.362 197.431 C 28.552 197.194,28.896 196.190,29.126 195.200 C 29.357 194.210,30.020 192.140,30.601 190.600 C 31.182 189.060,31.828 187.260,32.037 186.600 C 32.392 185.476,34.095 183.200,34.581 183.200 C 34.701 183.200,34.800 184.066,34.800 185.124 C 34.800 187.931,35.721 189.058,36.381 187.058 C 38.746 179.893,43.173 177.101,46.315 180.794 C 48.714 183.615,52.942 193.871,53.790 198.926 C 53.945 199.849,54.234 200.388,54.523 200.292 C 54.875 200.174,55.000 197.617,55.000 190.566 C 55.000 179.979,55.417 178.067,58.069 176.488 C 59.726 175.503,65.957 178.306,67.320 180.650 C 67.496 180.952,67.913 181.200,68.247 181.200 C 68.910 181.200,68.698 179.917,67.850 178.800 C 67.374 178.173,66.144 175.668,65.045 173.086 C 62.885 168.015,66.217 165.092,72.000 166.985 C 72.990 167.309,75.420 168.058,77.400 168.648 C 79.380 169.239,81.180 169.856,81.400 170.020 C 81.620 170.183,82.567 170.545,83.505 170.823 C 84.442 171.102,85.409 171.570,85.654 171.865 C 86.178 172.496,87.843 172.578,88.206 171.990 C 88.346 171.764,87.907 171.386,87.230 171.151 C 86.554 170.915,86.000 170.554,86.000 170.348 C 86.000 170.143,85.685 169.854,85.300 169.706 C 84.915 169.559,83.819 168.889,82.865 168.219 C 81.910 167.549,80.829 166.820,80.463 166.600 C 79.827 166.219,79.066 165.579,75.469 162.402 C 69.374 157.019,71.740 152.119,81.000 150.948 C 84.300 150.531,84.306 150.143,81.020 149.654 C 79.326 149.402,77.638 149.035,77.270 148.837 C 76.901 148.640,75.726 148.348,74.658 148.188 C 65.359 146.793,65.609 139.906,75.184 133.648 C 76.403 132.852,77.580 132.062,77.800 131.894 C 79.023 130.960,81.229 129.645,81.965 129.411 C 82.430 129.263,82.708 128.975,82.582 128.771 C 82.235 128.210,79.884 128.326,78.989 128.949 C 78.555 129.251,77.633 129.621,76.939 129.772 C 76.246 129.923,74.992 130.396,74.154 130.823 C 73.316 131.250,72.230 131.600,71.739 131.600 C 71.249 131.600,70.736 131.780,70.600 132.000 C 70.315 132.461,67.600 132.551,67.600 132.100 C 67.601 131.242,83.213 114.784,95.400 102.794 C 99.375 98.883,101.396 96.943,110.396 88.400 C 113.757 85.210,117.534 81.610,118.789 80.400 C 120.045 79.190,122.138 77.210,123.442 76.000 C 126.095 73.538,134.814 65.326,139.476 60.900 C 143.181 57.382,142.295 57.286,146.894 61.700 M343.000 178.835 C 343.880 179.064,345.635 179.487,346.899 179.776 C 348.163 180.064,349.423 180.482,349.699 180.704 C 349.975 180.926,350.773 181.230,351.472 181.380 C 352.172 181.529,352.959 181.910,353.221 182.226 C 353.483 182.542,353.888 182.800,354.120 182.800 C 356.031 182.800,366.800 192.502,366.800 194.224 C 366.800 194.396,367.114 194.884,367.498 195.308 C 368.297 196.191,367.043 197.538,364.605 198.415 C 363.942 198.654,362.890 199.108,362.268 199.424 C 361.645 199.741,360.960 200.000,360.746 200.000 C 360.531 200.000,359.535 200.374,358.531 200.832 C 356.249 201.871,355.221 201.628,353.759 199.705 C 351.221 196.367,347.569 193.881,342.400 191.972 C 336.234 189.696,326.855 192.609,321.711 198.399 C 321.222 198.950,320.569 199.670,320.259 200.000 C 319.755 200.538,318.555 202.786,316.950 206.200 C 315.657 208.951,315.744 219.452,317.079 221.800 C 317.329 222.240,318.020 223.590,318.614 224.800 C 319.674 226.958,325.483 233.200,326.433 233.200 C 326.675 233.200,327.331 233.560,327.891 234.000 C 328.450 234.440,329.199 234.801,329.554 234.802 C 329.909 234.804,330.740 235.102,331.400 235.465 C 336.961 238.524,348.436 234.648,353.746 227.917 C 355.231 226.034,357.125 225.308,357.781 226.369 C 357.906 226.572,358.592 226.866,359.305 227.023 C 360.017 227.179,361.227 227.643,361.994 228.053 C 362.761 228.464,363.593 228.800,363.844 228.800 C 364.384 228.800,368.000 230.777,368.000 231.072 C 368.000 231.875,364.665 236.493,362.579 238.579 C 358.805 242.352,351.487 246.785,347.907 247.466 C 347.188 247.602,346.089 247.971,345.465 248.286 C 343.850 249.098,330.944 249.095,329.327 248.281 C 328.707 247.969,327.570 247.598,326.800 247.456 C 326.030 247.313,324.860 246.945,324.200 246.637 C 323.540 246.329,322.550 245.873,322.000 245.623 C 317.582 243.615,312.387 239.307,309.187 235.000 C 308.207 233.680,307.313 232.510,307.200 232.400 C 307.088 232.290,306.322 230.850,305.498 229.200 C 304.150 226.501,303.627 225.019,302.393 220.400 C 301.908 218.585,301.908 209.015,302.393 207.200 C 303.627 202.582,304.150 201.099,305.498 198.400 C 306.322 196.750,307.222 195.256,307.498 195.080 C 307.774 194.904,308.001 194.544,308.001 194.280 C 308.005 192.963,316.590 184.400,317.907 184.400 C 318.124 184.400,318.519 184.139,318.783 183.820 C 319.281 183.220,321.141 182.269,324.600 180.844 C 326.438 180.087,327.756 179.705,331.600 178.816 C 333.655 178.341,341.147 178.353,343.000 178.835 M206.841 180.473 C 207.633 180.823,209.018 181.234,209.918 181.386 C 210.818 181.538,211.766 181.918,212.026 182.231 C 212.286 182.544,212.915 182.800,213.425 182.800 C 213.935 182.800,214.453 182.963,214.576 183.162 C 214.699 183.361,215.806 184.091,217.034 184.785 C 218.263 185.478,220.676 187.442,222.396 189.148 C 225.276 192.005,226.081 193.130,227.778 196.673 C 228.114 197.373,228.571 198.058,228.794 198.196 C 229.017 198.334,229.200 198.937,229.200 199.535 C 229.200 200.133,229.468 201.004,229.795 201.472 C 231.936 204.528,231.974 221.797,229.848 225.907 C 229.492 226.596,229.188 227.484,229.173 227.880 C 229.159 228.276,228.620 229.500,227.977 230.600 C 227.333 231.700,226.628 233.010,226.409 233.511 C 225.655 235.238,220.878 240.118,218.258 241.837 C 217.346 242.436,216.112 243.257,215.516 243.663 C 214.920 244.068,214.124 244.400,213.748 244.400 C 213.371 244.400,212.779 244.652,212.431 244.960 C 211.790 245.528,208.470 246.556,205.200 247.199 C 201.116 248.001,171.270 247.678,170.814 246.826 C 170.019 245.340,170.263 180.994,171.068 180.190 C 172.042 179.215,204.578 179.473,206.841 180.473 M281.400 180.761 C 282.720 181.261,284.084 181.924,284.431 182.235 C 284.779 182.546,285.258 182.800,285.496 182.800 C 286.568 182.800,292.570 188.289,293.765 190.363 C 295.319 193.060,296.352 195.274,296.603 196.446 C 296.762 197.191,297.097 198.053,297.346 198.361 C 297.631 198.714,297.800 200.810,297.800 203.999 C 297.800 207.188,297.631 209.285,297.346 209.638 C 297.097 209.947,296.771 210.830,296.624 211.600 C 296.296 213.307,294.439 217.200,293.952 217.200 C 293.759 217.200,293.600 217.438,293.600 217.729 C 293.600 218.402,289.398 222.728,288.258 223.229 C 287.786 223.437,286.500 224.133,285.400 224.777 C 284.300 225.420,283.040 225.967,282.600 225.991 C 282.160 226.015,281.080 226.332,280.200 226.694 C 278.905 227.227,276.540 227.396,267.800 227.576 L 257.000 227.800 256.892 237.168 C 256.823 243.258,256.630 246.722,256.343 247.068 C 255.746 247.788,243.995 247.835,243.280 247.120 C 242.914 246.754,242.800 238.744,242.800 213.507 L 242.800 180.374 243.700 179.997 C 245.842 179.099,278.773 179.766,281.400 180.761 M184.900 192.488 L 184.000 192.922 184.000 213.599 C 184.000 238.450,182.961 235.605,192.031 235.587 C 207.809 235.557,214.969 231.758,216.806 222.442 C 217.006 221.429,217.356 219.971,217.585 219.203 C 218.209 217.101,218.098 210.051,217.404 207.764 C 217.077 206.684,216.807 205.443,216.804 205.007 C 216.787 201.821,212.320 196.248,208.158 194.219 C 204.036 192.208,187.960 191.012,184.900 192.488 M256.995 192.469 C 256.880 192.767,256.835 197.959,256.893 204.006 L 257.000 215.000 267.200 215.000 C 277.345 215.000,277.409 214.995,279.000 214.013 C 286.090 209.639,285.664 198.263,278.233 193.492 L 276.220 192.200 266.712 192.063 C 258.982 191.952,257.164 192.028,256.995 192.469 M55.728 203.600 C 55.728 205.030,55.801 205.615,55.889 204.900 C 55.978 204.185,55.978 203.015,55.889 202.300 C 55.801 201.585,55.728 202.170,55.728 203.600 " stroke="none" fill="#040434" fill-rule="evenodd"></path><path id="path3" d="M142.124 59.861 C 141.861 59.966,139.578 62.065,137.048 64.525 C 131.757 69.674,122.664 78.332,118.643 82.051 C 117.127 83.453,114.815 85.635,113.505 86.900 C 112.196 88.165,110.961 89.200,110.762 89.200 C 110.563 89.200,110.400 89.372,110.400 89.582 C 110.400 89.953,108.533 92.000,108.195 92.000 C 107.839 92.000,82.800 117.263,82.800 117.622 C 82.800 117.830,82.542 118.000,82.227 118.000 C 81.912 118.000,81.540 118.360,81.400 118.800 C 81.260 119.240,80.909 119.600,80.620 119.600 C 80.330 119.600,79.999 119.960,79.884 120.400 C 79.769 120.840,79.388 121.200,79.037 121.200 C 78.687 121.200,78.400 121.408,78.400 121.662 C 78.400 121.917,77.725 122.804,76.900 123.634 C 74.750 125.798,72.182 128.877,72.306 129.142 C 72.555 129.674,75.721 129.079,76.433 128.367 C 76.930 127.870,77.756 127.600,78.780 127.600 C 79.801 127.600,80.485 127.377,80.712 126.971 C 80.910 126.617,81.837 126.242,82.832 126.112 C 83.804 125.986,84.744 125.639,84.920 125.341 C 85.096 125.044,85.787 124.800,86.457 124.800 C 87.126 124.800,88.131 124.440,88.691 124.000 C 90.319 122.719,93.630 123.101,93.091 124.508 C 92.966 124.832,92.395 125.215,91.822 125.359 C 91.249 125.503,90.424 125.976,89.990 126.410 C 89.555 126.845,88.930 127.200,88.600 127.200 C 88.270 127.200,87.640 127.560,87.200 128.000 C 86.760 128.440,85.950 128.800,85.400 128.800 C 84.812 128.800,84.400 129.030,84.400 129.357 C 84.400 129.969,83.559 130.400,82.367 130.400 C 81.945 130.400,81.600 130.658,81.600 130.973 C 81.600 131.288,81.222 131.666,80.761 131.813 C 80.299 131.959,79.579 132.421,79.161 132.839 C 78.742 133.258,78.149 133.600,77.843 133.600 C 77.536 133.600,77.182 133.870,77.055 134.200 C 76.929 134.530,76.556 134.800,76.227 134.800 C 75.897 134.800,75.435 135.160,75.200 135.600 C 74.965 136.040,74.582 136.400,74.350 136.400 C 73.725 136.400,70.800 139.280,70.800 139.895 C 70.800 140.187,70.530 140.529,70.200 140.655 C 69.793 140.812,69.600 141.450,69.600 142.643 C 69.600 143.938,69.758 144.400,70.200 144.400 C 70.533 144.400,70.800 144.756,70.800 145.200 C 70.800 145.878,71.067 146.000,72.551 146.000 C 73.564 146.000,74.498 146.236,74.767 146.560 C 75.052 146.904,76.494 147.229,78.516 147.404 C 80.322 147.561,82.250 147.924,82.800 148.211 C 83.350 148.498,84.879 148.883,86.197 149.066 C 90.705 149.694,89.771 151.360,84.657 151.813 C 82.815 151.976,81.211 152.332,80.894 152.648 C 80.591 152.952,79.636 153.200,78.771 153.200 C 77.733 153.200,76.928 153.472,76.400 154.000 C 75.960 154.440,75.240 154.800,74.800 154.800 C 74.107 154.800,74.000 155.067,74.000 156.797 C 74.000 158.360,74.174 158.902,74.800 159.293 C 75.240 159.568,75.600 160.109,75.600 160.496 C 75.600 160.933,75.903 161.200,76.400 161.200 C 76.844 161.200,77.200 161.467,77.200 161.800 C 77.200 162.130,77.456 162.400,77.769 162.400 C 78.082 162.400,78.873 162.850,79.527 163.400 C 80.181 163.950,80.915 164.400,81.158 164.400 C 81.401 164.400,81.600 164.670,81.600 165.000 C 81.600 165.330,81.887 165.600,82.237 165.600 C 82.588 165.600,82.969 165.960,83.084 166.400 C 83.234 166.974,83.630 167.200,84.484 167.200 C 85.338 167.200,85.734 167.426,85.884 168.000 C 86.000 168.443,86.430 168.800,86.847 168.800 C 87.333 168.800,87.600 169.083,87.600 169.600 C 87.600 170.245,87.867 170.400,88.980 170.400 C 89.739 170.400,90.504 170.636,90.680 170.923 C 90.856 171.211,91.585 171.683,92.300 171.972 C 93.015 172.261,93.600 172.655,93.600 172.849 C 93.600 173.042,93.948 173.200,94.373 173.200 C 94.798 173.200,95.260 173.560,95.400 174.000 C 95.580 174.568,96.005 174.800,96.864 174.800 C 97.738 174.800,98.133 175.022,98.284 175.600 C 98.399 176.040,98.818 176.400,99.214 176.400 C 100.299 176.400,101.200 176.829,101.200 177.347 C 101.200 177.600,101.560 178.032,102.000 178.307 C 102.904 178.871,103.070 180.211,102.275 180.516 C 101.438 180.837,99.554 180.346,99.324 179.747 C 99.204 179.433,98.537 179.200,97.761 179.200 C 96.840 179.200,96.247 178.944,95.907 178.400 C 95.572 177.863,94.974 177.600,94.091 177.600 C 93.290 177.600,92.685 177.365,92.545 177.000 C 92.403 176.630,91.795 176.400,90.957 176.400 C 89.867 176.400,89.600 176.243,89.600 175.600 C 89.600 175.013,89.333 174.800,88.600 174.800 C 87.867 174.800,87.600 175.013,87.600 175.600 C 87.600 176.133,87.867 176.400,88.400 176.400 C 88.933 176.400,89.200 176.667,89.200 177.200 C 89.200 177.733,89.467 178.000,90.000 178.000 C 90.444 178.000,90.800 178.267,90.800 178.600 C 90.800 178.930,91.121 179.200,91.513 179.200 C 91.904 179.200,93.294 180.280,94.600 181.600 C 95.906 182.920,97.296 184.000,97.687 184.000 C 98.133 184.000,98.400 184.299,98.400 184.800 C 98.400 185.369,98.667 185.600,99.322 185.600 C 99.850 185.600,100.822 186.198,101.600 187.000 C 102.346 187.770,103.282 188.400,103.678 188.400 C 104.133 188.400,104.400 188.696,104.400 189.200 C 104.400 189.773,104.667 190.000,105.338 190.000 C 105.854 190.000,106.602 190.360,107.000 190.800 C 107.398 191.240,108.145 191.600,108.659 191.600 C 109.173 191.600,109.818 191.960,110.093 192.400 C 110.368 192.840,110.999 193.200,111.496 193.200 C 112.133 193.200,112.400 193.436,112.400 194.000 C 112.400 194.516,112.667 194.800,113.151 194.800 C 113.564 194.800,114.126 195.070,114.400 195.400 C 114.674 195.730,115.298 196.000,115.787 196.000 C 116.276 196.000,117.002 196.360,117.400 196.800 C 117.912 197.366,118.632 197.600,119.862 197.600 L 121.600 197.600 121.600 195.849 C 121.600 194.815,121.835 193.903,122.174 193.621 C 122.490 193.359,122.867 192.605,123.012 191.945 C 123.157 191.286,123.524 190.651,123.827 190.534 C 124.130 190.418,124.496 189.696,124.640 188.929 C 124.783 188.163,125.137 187.445,125.426 187.335 C 125.715 187.224,126.063 186.623,126.200 186.000 C 126.337 185.377,126.708 184.767,127.024 184.646 C 127.341 184.524,127.600 184.066,127.600 183.627 C 127.600 183.187,127.960 182.635,128.400 182.400 C 128.880 182.143,129.200 181.562,129.200 180.948 C 129.200 180.278,129.463 179.856,129.962 179.726 C 130.448 179.599,130.818 179.032,130.981 178.163 C 131.121 177.413,131.413 176.800,131.628 176.800 C 131.844 176.800,132.191 176.350,132.400 175.800 C 132.609 175.250,132.965 174.800,133.190 174.800 C 133.416 174.800,133.600 174.544,133.600 174.231 C 133.600 173.918,134.050 173.127,134.600 172.473 C 135.150 171.819,135.600 171.085,135.600 170.842 C 135.600 170.599,135.870 170.400,136.200 170.400 C 136.530 170.400,136.800 170.146,136.800 169.836 C 136.800 169.526,137.520 168.361,138.400 167.248 C 139.280 166.134,140.000 165.038,140.000 164.812 C 140.000 164.585,140.258 164.400,140.573 164.400 C 140.888 164.400,141.271 163.995,141.424 163.500 C 141.576 163.005,141.945 162.330,142.243 162.000 C 144.049 159.999,144.800 159.043,144.800 158.742 C 144.800 158.554,145.070 158.400,145.400 158.400 C 145.730 158.400,146.000 158.132,146.000 157.803 C 146.000 157.475,146.360 156.982,146.800 156.707 C 147.240 156.432,147.600 155.990,147.600 155.724 C 147.600 155.458,147.825 155.096,148.100 154.920 C 148.375 154.744,149.278 153.756,150.106 152.725 C 150.935 151.693,152.761 149.667,154.165 148.221 C 155.569 146.775,156.820 145.324,156.946 144.996 C 157.072 144.668,157.451 144.400,157.787 144.400 C 158.124 144.400,158.400 144.213,158.400 143.983 C 158.400 143.422,178.598 123.200,179.158 123.200 C 179.401 123.200,179.600 122.924,179.600 122.587 C 179.600 122.251,179.875 121.869,180.212 121.740 C 180.548 121.611,182.501 119.862,184.552 117.853 C 186.603 115.844,189.478 113.075,190.940 111.700 C 194.965 107.918,196.891 110.565,173.912 88.300 C 171.698 86.155,169.808 84.400,169.712 84.400 C 169.616 84.400,168.863 83.725,168.039 82.900 C 167.214 82.075,165.294 80.255,163.770 78.856 C 158.496 74.012,151.888 67.783,147.927 63.919 C 144.046 60.133,143.100 59.472,142.124 59.861 M333.000 179.610 C 332.466 179.847,332.798 179.886,334.000 179.727 C 334.990 179.596,335.875 179.424,335.967 179.344 C 336.314 179.043,333.764 179.272,333.000 179.610 M340.000 179.600 C 341.368 180.038,342.419 180.038,341.400 179.600 C 340.960 179.411,340.240 179.262,339.800 179.268 C 339.157 179.277,339.196 179.343,340.000 179.600 M244.184 180.900 C 244.079 181.175,244.040 196.160,244.097 214.200 L 244.200 247.000 244.400 213.700 C 244.510 195.385,244.549 180.400,244.487 180.400 C 244.426 180.400,244.289 180.625,244.184 180.900 M171.391 213.800 C 171.391 232.060,171.440 239.588,171.500 230.530 C 171.560 221.471,171.560 206.531,171.500 197.330 C 171.440 188.128,171.391 195.540,171.391 213.800 M360.000 188.200 C 360.746 188.970,361.447 189.600,361.557 189.600 C 361.667 189.600,361.146 188.970,360.400 188.200 C 359.654 187.430,358.953 186.800,358.843 186.800 C 358.733 186.800,359.254 187.430,360.000 188.200 M261.322 190.699 C 263.699 190.770,267.479 190.769,269.722 190.698 C 271.965 190.627,270.020 190.569,265.400 190.569 C 260.780 190.570,258.945 190.628,261.322 190.699 M182.986 213.600 C 182.986 225.150,183.037 229.875,183.100 224.100 C 183.162 218.325,183.162 208.875,183.100 203.100 C 183.037 197.325,182.986 202.050,182.986 213.600 M296.600 204.000 C 296.600 205.964,296.722 207.262,296.872 206.885 C 297.021 206.508,297.144 205.210,297.144 204.000 C 297.144 202.790,297.021 201.492,296.872 201.115 C 296.722 200.738,296.600 202.036,296.600 204.000 M314.865 209.417 C 314.609 209.978,314.408 210.744,314.418 211.119 C 314.427 211.493,314.689 211.087,315.000 210.215 C 315.645 208.404,315.559 207.894,314.865 209.417 M256.562 215.900 C 257.310 216.783,257.472 216.798,265.162 216.709 L 273.000 216.618 265.222 216.500 C 258.548 216.399,257.327 216.284,256.622 215.691 C 255.803 215.002,255.802 215.003,256.562 215.900 M274.800 216.000 C 273.976 216.264,273.941 216.326,274.600 216.354 C 275.040 216.373,275.670 216.213,276.000 216.000 C 276.701 215.547,276.214 215.547,274.800 216.000 M314.432 216.600 C 314.430 217.040,314.686 217.850,315.000 218.400 C 315.730 219.678,315.734 219.404,315.012 217.400 C 314.695 216.520,314.434 216.160,314.432 216.600 M230.093 220.400 C 230.093 221.170,230.175 221.485,230.276 221.100 C 230.376 220.715,230.376 220.085,230.276 219.700 C 230.175 219.315,230.093 219.630,230.093 220.400 M260.120 227.098 C 262.055 227.172,265.115 227.171,266.920 227.097 C 268.724 227.023,267.140 226.963,263.400 226.964 C 259.660 226.964,258.184 227.025,260.120 227.098 M199.500 236.682 C 199.995 236.778,200.805 236.778,201.300 236.682 C 201.795 236.587,201.390 236.509,200.400 236.509 C 199.410 236.509,199.005 236.587,199.500 236.682 M116.022 249.186 C 115.370 249.589,115.717 254.691,116.559 257.096 C 116.849 257.923,117.219 259.494,117.380 260.586 C 117.542 261.678,117.928 262.933,118.237 263.375 C 118.547 263.817,118.800 264.636,118.800 265.195 C 118.800 265.754,119.160 266.884,119.600 267.704 C 120.040 268.525,120.400 269.396,120.400 269.638 C 120.400 271.361,127.317 284.365,130.486 288.600 C 136.902 297.176,144.751 305.229,151.010 309.658 C 156.755 313.724,161.030 316.447,164.101 317.997 C 167.907 319.917,168.145 320.037,169.934 320.933 C 171.756 321.846,175.686 323.366,182.000 325.600 C 182.770 325.872,184.420 326.324,185.666 326.603 C 186.912 326.882,188.091 327.209,188.285 327.329 C 190.071 328.433,200.234 329.791,201.489 329.094 C 201.978 328.822,203.568 327.971,205.022 327.201 C 206.476 326.432,207.853 325.577,208.082 325.301 C 208.311 325.026,208.733 324.800,209.020 324.800 C 209.308 324.800,209.783 324.575,210.076 324.300 C 210.369 324.025,211.955 322.900,213.599 321.800 C 215.243 320.700,216.860 319.561,217.194 319.268 C 217.527 318.976,218.794 317.986,220.009 317.068 C 224.053 314.014,233.018 305.394,236.400 301.309 C 238.785 298.427,241.971 294.258,243.093 292.550 C 243.364 292.137,244.039 291.117,244.593 290.282 C 245.147 289.447,245.600 288.652,245.600 288.514 C 245.600 288.376,245.850 287.979,246.155 287.631 C 247.231 286.408,248.911 282.751,248.555 282.406 C 248.181 282.043,245.174 282.709,243.800 283.458 C 243.360 283.698,242.289 284.023,241.420 284.180 C 240.552 284.338,239.477 284.721,239.031 285.033 C 238.586 285.345,237.767 285.600,237.211 285.600 C 236.655 285.600,235.120 285.948,233.800 286.373 C 230.524 287.429,228.238 287.998,225.400 288.463 C 224.080 288.679,222.100 289.101,221.000 289.400 C 219.900 289.699,217.560 290.061,215.800 290.203 C 214.040 290.345,211.303 290.718,209.717 291.031 C 205.773 291.809,188.393 291.815,185.000 291.039 C 183.680 290.737,181.250 290.370,179.600 290.222 C 177.950 290.075,175.700 289.706,174.600 289.403 C 173.500 289.100,171.790 288.671,170.800 288.451 C 167.056 287.618,165.355 287.101,163.921 286.362 C 163.107 285.943,162.027 285.599,161.521 285.597 C 161.014 285.596,160.060 285.237,159.400 284.800 C 158.740 284.363,157.817 284.004,157.349 284.003 C 156.881 284.001,156.274 283.730,156.000 283.400 C 155.726 283.070,155.283 282.800,155.015 282.800 C 154.499 282.800,150.879 280.990,148.200 279.392 C 147.320 278.867,146.341 278.307,146.024 278.147 C 145.071 277.666,140.484 274.540,139.865 273.950 C 139.548 273.647,138.785 273.040,138.170 272.600 C 135.937 271.003,132.822 268.328,130.650 266.142 C 126.858 262.326,121.600 256.363,121.600 255.879 C 121.600 255.750,120.971 254.960,120.202 254.122 C 119.433 253.285,118.803 252.403,118.802 252.162 C 118.801 251.921,118.440 251.398,118.000 251.000 C 117.560 250.602,117.200 250.045,117.200 249.762 C 117.200 249.049,116.666 248.788,116.022 249.186 " stroke="none" fill="#04a3e7" fill-rule="evenodd"></path></g></svg>
